<?xml version="1.0" encoding="UTF-8"?>
<svg width="126px" height="148px" viewBox="0 0 126 148" version="1.1" xmlns="http://www.w3.org/2000/svg" xmlns:xlink="http://www.w3.org/1999/xlink">
    <!-- Generator: Sketch 58 (84663) - https://sketch.com -->
    <title>Symbol</title>
    <desc>Created with Sketch.</desc>
    <defs>
        <radialGradient cx="5.28515317%" cy="95.1456456%" fx="5.28515317%" fy="95.1456456%" r="103.664734%" gradientTransform="translate(0.052852,0.951456),scale(1.000000,0.851357),rotate(-44.233830),translate(-0.052852,-0.951456)" id="radialGradient-1">
            <stop stop-color="#304058" offset="0%"></stop>
            <stop stop-color="#A2B5D2" offset="100%"></stop>
        </radialGradient>
    </defs>
    <g id="UI-Siteweb" stroke="none" stroke-width="1" fill="none" fill-rule="evenodd" opacity="0.0924711682">
        <g id="Homepage-Copy" transform="translate(-1230.000000, -67.000000)" fill="url(#radialGradient-1)" fill-rule="nonzero">
            <g id="Symbol" transform="translate(1192.000000, 63.000000)">
                <path d="M143.885396,58.9172317 C155.098119,59.0226062 164.103186,68.311886 164,79.6641308 C163.903823,89.9463053 156.320686,98.5751394 146.244041,99.8663478 C145.656945,99.9342475 145.067376,99.9771023 144.476569,99.9942859 L143.885396,100.002889 C140.059379,100.007342 136.311055,98.9105567 133.077264,96.8401708 C131.908936,96.098097 130.55737,95.7077662 129.177951,95.7122187 C127.741362,95.7166711 126.332626,96.1144227 125.101264,96.8668855 C122.625347,98.3510331 121.171167,101.105611 121.326553,104.01454 C121.41011,105.093516 121.41011,106.176943 121.326553,107.255919 C120.474861,117.011221 112.943031,124.802995 103.329613,125.877518 C102.579068,125.960631 101.825592,126.003671 101.07065,126.003671 C97.2490303,126.005155 93.5036378,124.909854 90.2727787,122.840952 C89.1000531,122.09591 87.7426232,121.705579 86.3573411,121.713 C84.9222181,121.714484 83.5149473,122.112236 82.2865172,122.86173 L82.1985628,122.91516 C79.7739526,124.409696 78.3578864,127.134591 78.5132725,130.004933 C78.5894997,131.09875 78.5807043,132.197019 78.4868862,133.289351 C77.6366601,143.12925 69.97583,150.95516 60.2656619,151.906499 C59.601606,151.968833 58.9507433,152 58.2896192,152 C47.0768963,151.894626 38.0718294,142.605346 38.1750157,131.253101 C38.2711928,120.970926 45.8543299,112.342092 55.9309748,111.050884 C56.7137691,110.960351 57.5009612,110.914342 58.2896192,110.914342 C62.1156365,110.90989 65.8639608,112.006675 69.0977517,114.077061 C70.2660796,114.819135 71.6176459,115.209466 72.9970644,115.205013 C74.4336533,115.200561 75.8423899,114.802809 77.0737518,114.050346 C79.5511347,112.570651 81.0082463,109.816073 80.8528602,106.908628 C80.0847249,95.906642 88.0284751,86.252262 98.8556644,85.0293244 C99.5988792,84.9491804 100.346492,84.9076243 101.094104,84.9076243 C104.914258,84.9061401 108.656719,86.0029252 111.886112,88.0703428 C113.060303,88.816869 114.419199,89.208684 115.805947,89.2042315 C117.239604,89.2012632 118.643943,88.8035117 119.872373,88.0555013 L119.960328,88.002072 C122.383472,86.5075354 123.799538,83.7870928 123.645618,80.9182355 C122.871619,69.810875 130.973687,60.0986132 141.918149,59.0122172 C142.57341,58.9483988 143.236,58.9172317 143.885396,58.9172317 Z M101.119025,32.9283234 C112.331748,33.0336979 121.336815,42.3229776 121.232735,53.6752225 C121.137451,63.9573969 113.554314,72.586231 103.477669,73.8774394 C102.694875,73.9679724 101.907683,74.013981 101.119025,74.013981 C97.2930075,74.0184334 93.5446832,72.9216484 90.3108923,70.8512625 C89.1425644,70.1091887 87.7909981,69.7188579 86.4115796,69.7233103 C84.9749907,69.7277628 83.5662541,70.1255143 82.3348922,70.8779771 C79.8604411,72.3591564 78.4047954,75.1122502 78.5601816,78.0196953 C78.6364087,79.1135121 78.6276133,80.2117813 78.5337952,81.3041139 C77.6835692,91.1440124 70.022739,98.9699226 60.3125709,99.9197771 C59.8167278,99.9676408 59.3151128,99.9996428 58.818239,100.012652 L58.323335,100.019215 L58.2896192,100.004373 C47.0783622,99.8233075 38.1333975,90.4746618 38.3122382,79.1239011 C38.4720221,68.9367121 45.9803979,60.4043476 55.9573611,59.0715831 C56.7401555,58.9810501 57.5273475,58.9350415 58.3160055,58.9350415 C62.1420229,58.9305891 65.8903471,60.0273741 69.124138,62.09776 C70.2924659,62.8398338 71.6440322,63.2301646 73.0234507,63.2257122 C74.4600396,63.2212597 75.8687763,62.8235082 77.1001382,62.0710454 C79.577521,60.5913502 81.0346326,57.8367723 80.8792465,54.9293272 C80.1052476,43.8219667 88.2073157,34.1097049 99.1517776,33.0233088 C99.807038,32.9594905 100.469628,32.9283234 101.119025,32.9283234 Z M58.4787212,4.04681136 C59.9439767,4.3183554 60.933466,5.69777795 60.7560441,7.17521984 L60.7303544,7.34607144 L70.1590684,10.9347403 C70.3906817,10.5384729 70.7146472,10.2045397 71.1016466,9.96262364 C72.4209629,9.13892173 74.1492673,9.5529989 74.9628457,10.8887317 C75.7451326,12.1730902 75.3970882,13.8402863 74.1962909,14.6989002 L74.0481197,14.7979765 L77.9840801,24.7432494 C78.1555912,24.709114 78.3300342,24.6913043 78.5044771,24.6898201 C78.7302268,24.6853677 78.9559765,24.7076299 79.1743966,24.7610592 C80.6842809,25.100929 81.6356545,26.6162437 81.2999618,28.1449157 C80.9767022,29.6169702 79.5768514,30.5646748 78.1253461,30.329368 L77.9576938,30.2969297 L73.9484381,40.0893355 C74.0246652,40.1427648 74.0982863,40.2001518 74.1684327,40.2619363 L74.2709376,40.3579662 L74.3928653,40.4910331 C75.2057168,41.4465148 75.1650743,42.8899894 74.2709376,43.795252 C73.3327571,44.7436223 71.8126115,44.7436223 70.8758969,43.795252 C70.8245902,43.7477593 70.8026016,43.6794885 70.7615562,43.6260592 C67.7813672,46.0318624 64.1781677,47.5145258 60.3858662,47.8959518 C59.6968899,47.9671909 59.0049818,48.0042962 58.3116078,48.0042962 C47.097419,48.008747 38.0043977,38.8085161 38,27.4562712 C38,26.749817 38.0366477,26.0433627 38.1040794,25.3472975 C38.4837493,21.641381 39.8631678,18.1105939 42.0913465,15.1437829 L41.945672,15.0532499 L41.8054946,14.953812 L41.6744945,14.8117502 C40.7138266,13.6966977 40.7574933,12.0032029 41.8054946,10.942161 C42.9005272,9.83498695 44.6742747,9.83498695 45.7678413,10.942161 C45.8694776,11.0480302 45.9619926,11.1618149 46.0453864,11.2826355 L46.1636362,11.4690334 L55.2478621,7.48409717 C55.1599077,7.10415539 55.1511122,6.71085628 55.2200099,6.32646205 C55.4985322,4.78591686 56.9571097,3.76482332 58.4787212,4.04681136 Z M76.5269685,29.5875072 L73.3356889,31.7321004 L73.3356889,31.7736566 C73.8952707,33.1607637 73.2919936,34.7372314 71.9819727,35.3894846 L71.821407,35.4632474 L71.758373,35.4632474 L72.6012695,39.6797107 L72.7865235,39.6910274 L72.7865235,39.6910274 L72.9706781,39.7168144 L76.9960588,29.977838 C76.8260136,29.8650428 76.6691615,29.7344378 76.5269685,29.5875072 Z M72.6980194,24.2831637 C71.7529555,25.2641207 70.2593375,25.4140449 69.1459812,24.6653955 L68.9966041,24.557731 L67.3313337,26.0804664 C67.8508145,26.9250392 67.8832821,27.980929 67.4287364,28.8506935 L67.3313337,29.0220469 L69.0185927,30.5670446 C70.0856456,29.7195318 71.5912734,29.7763783 72.5925488,30.6765377 L72.7258716,30.8045082 L75.9230148,28.6539783 L75.9142194,28.6317161 C75.6595913,28.002586 75.6353159,27.3037305 75.8424618,26.6617373 L75.920083,26.4500192 L72.6980194,24.2831637 Z M73.0630302,15.2165061 C72.8915191,15.2506415 72.7170762,15.2684513 72.5426332,15.2699354 L72.5426332,15.2699354 L71.7202594,19.6555915 C71.7437139,19.6644964 71.7671684,19.6734013 71.789157,19.6837903 C73.2154845,20.2922908 73.8839381,21.9560203 73.2829163,23.3986117 L73.2829163,23.3986117 L76.5108435,25.5699196 L76.4991163,25.5476574 C76.645707,25.3992427 76.8069568,25.2686377 76.9828656,25.1573266 L76.9828656,25.1573266 Z M64.9638939,17.0019356 C64.8187691,17.0954369 64.6663148,17.1770651 64.5065309,17.2438517 C63.7568886,17.5575777 62.9110689,17.5260681 62.1904432,17.1621635 L62.013023,17.0642698 L60.3785367,18.9506214 C61.095691,19.8617231 61.176067,21.1209903 60.6011412,22.1145368 L60.4928774,22.2869852 L63.3763166,25.2063035 C64.3136012,24.5545153 65.5411626,24.5500766 66.4785926,25.1779841 L66.6408915,25.2953523 L68.3120255,23.7726169 C68.2612074,23.6895047 68.2149499,23.6037539 68.173253,23.5158044 L68.1141281,23.3822861 L68.1038667,23.3629922 C67.7700308,22.5235583 67.8537635,21.5781101 68.3205013,20.815041 L68.4263663,20.6544228 L64.9638939,17.0019356 Z M46.3937836,14.058871 C46.281202,14.3402654 46.125464,14.6007629 45.9318236,14.8304852 L45.7795686,14.9968522 L45.7663754,14.9760742 C45.5576303,15.1838548 45.3179252,15.355541 45.0562666,15.4865735 L44.8560472,15.577154 L45.6212506,19.4196121 C46.1240568,19.4118203 46.6190065,19.5426572 47.0530696,19.794226 L47.2352143,19.9093808 L50.6874253,16.4142132 C50.4142169,15.9960546 50.2577313,15.5108543 50.2326993,15.0113082 L50.2300623,14.7964923 L46.3937836,14.058871 Z M69.9978186,13.5750389 L66.223108,14.4759164 C66.2478656,15.0405521 66.1058355,15.5969792 65.8176088,16.0764017 L65.702711,16.2524411 L69.1651834,19.9049283 C69.3088423,19.8084587 69.4627626,19.7253465 69.6225464,19.6570757 C69.8957915,19.5419058 70.1849856,19.472329 70.4788707,19.449105 L70.6999881,19.4403901 L71.5223619,15.054734 C71.1646806,14.91374 70.8377833,14.6985386 70.5651246,14.4224871 C70.3261818,14.1776028 70.134148,13.8896781 69.9978186,13.5750389 Z M59.1647657,9.45801346 C58.8593684,9.60395464 58.5305573,9.69217897 58.1952989,9.71839204 L57.993506,9.72664417 L57.977381,9.70586611 C57.7519978,9.69696122 57.5282637,9.65967201 57.3117447,9.59525073 L57.0978368,9.52183181 L54.9473512,12.7943772 C55.9470997,13.7441026 56.1112758,15.2790816 55.3629056,16.4199752 L55.2551916,16.573017 L56.7284282,18.2278415 C57.5493361,17.7153159 58.570728,17.6811475 59.4183672,18.1253364 L59.5972082,18.2278415 L61.2316946,16.34149 C60.4187159,15.2860586 60.4512172,13.8073601 61.2883999,12.793481 L61.4134671,12.6518991 L59.1647657,9.45801346 Z M55.6715092,8.4829285 L46.546238,12.4782538 C46.5657834,12.5940173 46.5788137,12.7111001 46.5844601,12.8286226 L46.5872834,13.0051262 L50.4294257,13.8110183 C50.9974647,12.4267653 52.5237103,11.7368343 53.9082735,12.2096129 L54.0736706,12.2719573 L56.1919062,9.04690458 C55.9940088,8.88364834 55.8195658,8.69367745 55.6715092,8.4829285 Z M60.3624117,8.33896618 C60.29498,8.45967685 60.2190786,8.57577017 60.1351418,8.68548716 L60.0032645,8.84506051 L62.2519659,12.0389461 L62.3501816,11.9914534 C63.7033266,11.4177733 65.2543473,12.0008391 65.918993,13.3026095 L65.9944265,13.4622436 L69.7691371,12.5613661 C69.7632735,12.4248245 69.7665311,12.2882829 69.7793442,12.1526208 L69.8057848,11.9498973 L60.3770708,8.36122839 L60.3624117,8.33896618 Z"></path>
            </g>
        </g>
    </g>
</svg>